<svg version="1.1"
   xmlns="http://www.w3.org/2000/svg" xmlns:xlink="http://www.w3.org/1999/xlink" xmlns:a="http://ns.adobe.com/AdobeSVGViewerExtensions/3.0/"
   x="0px" y="0px" viewBox="0 0 200 200" style="enable-background:new 0 0 200 200;" xml:space="preserve">
<defs>
</defs>
<path fill="#efefef" d="M100,0C44.8,0,0,44.8,0,100c0,55.2,44.8,100,100,100s100-44.8,100-100C200,44.8,155.2,0,100,0z M103.1,164
  c-2.1,2.1-4.9,3.1-8.3,3.1s-6.2-1-8.3-3.1c-2.1-2.1-3.2-4.6-3.2-7.7c0-3.3,1-6,3.2-7.9c2.1-2,4.9-2.9,8.3-2.9s6.2,1,8.3,2.9
  c2.1,1.9,3.2,4.6,3.2,7.9C106.3,159.3,105.2,161.9,103.1,164z M132.6,84.9c-1.7,3.8-3.8,7.3-6.4,10.2c-2.5,3-5.3,5.7-8.3,8.3
  c-3,2.5-5.7,5.2-8.3,8c-2.5,2.8-4.6,5.9-6.4,9.4c-1.7,3.4-2.6,7.6-2.6,12.6H87c-0.5-5.7,0-10.7,1.3-14.8c1.3-4.1,3.1-7.8,5.4-11
  c2.3-3.2,4.8-6.1,7.7-8.6c2.8-2.5,5.4-5.1,7.9-7.6c2.5-2.5,4.5-5.3,6.2-8.2c1.7-2.9,2.5-6.2,2.5-10.1c0-5.1-1.5-9.3-4.6-12.5
  c-3-3.2-8.3-4.9-15.9-4.9c-4.6,0-9.3,0.9-14,2.7c-4.8,1.8-8.8,3.7-12.1,5.7l-5.5-12.4c4.8-3,9.9-5.3,15.3-7c5.4-1.7,12-2.5,20-2.5
  c5.6,0,10.5,0.7,14.8,2.2c4.2,1.5,7.8,3.5,10.7,6.1c2.9,2.6,5,5.6,6.4,9.1c1.4,3.5,2.2,7.3,2.2,11.3
  C135.2,76.5,134.3,81.1,132.6,84.9z"/>
</svg>
